<svg width="16" height="16" viewBox="0 0 16 16" fill="none" xmlns="http://www.w3.org/2000/svg">
<g clip-path="url(#clip0_1646_58191)">
<rect x="15.75" y="15.75" width="15.5" height="15.5" rx="2.75" transform="rotate(-180 15.75 15.75)" fill="#111B24" stroke="#00EAC7" stroke-width="0.5"/>
<g clip-path="url(#clip1_1646_58191)">
<path d="M11.3729 8.47572H13.0063C13.0257 8.47577 13.0448 8.47201 13.0627 8.46468C13.0806 8.45734 13.0969 8.44657 13.1105 8.43298C13.1242 8.41939 13.1351 8.40326 13.1425 8.38549C13.1498 8.36773 13.1536 8.34869 13.1536 8.32947V7.15947C13.1536 7.12069 13.1381 7.08349 13.1104 7.05606C13.0828 7.02863 13.0454 7.01322 13.0063 7.01322H10.7175L8.91423 2.9907C8.89889 2.95647 8.87394 2.92735 8.84238 2.90683C8.81081 2.88631 8.77396 2.87526 8.73623 2.875H7.26378C7.22583 2.87501 7.1887 2.88594 7.15688 2.90648C7.12505 2.92701 7.0999 2.95626 7.08447 2.9907L5.28252 7.01322H2.99368C2.95463 7.01322 2.91718 7.02863 2.88956 7.05606C2.86195 7.08349 2.84644 7.12069 2.84644 7.15947V8.32947C2.84639 8.34869 2.85017 8.36773 2.85756 8.38549C2.86494 8.40326 2.87579 8.41939 2.88947 8.43298C2.90315 8.44657 2.9194 8.45734 2.93728 8.46468C2.95517 8.47201 2.97433 8.47577 2.99368 8.47572H4.62712L2.86018 12.4193C2.85022 12.4415 2.846 12.4658 2.84789 12.4901C2.84979 12.5143 2.85774 12.5377 2.87102 12.5581C2.88431 12.5785 2.90251 12.5954 2.92399 12.607C2.94546 12.6187 2.96953 12.6249 2.99401 12.625H4.30841C4.34636 12.625 4.3835 12.6141 4.41532 12.5935C4.44714 12.573 4.47229 12.5437 4.48773 12.5093L8.00001 4.67387L11.5123 12.5093C11.5277 12.5437 11.5529 12.573 11.5847 12.5935C11.6165 12.6141 11.6537 12.625 11.6916 12.625H13.006C13.0306 12.625 13.0548 12.619 13.0764 12.6074C13.098 12.5958 13.1163 12.579 13.1297 12.5585C13.1431 12.5381 13.1511 12.5146 13.1531 12.4903C13.155 12.466 13.1508 12.4416 13.1408 12.4193L11.3729 8.47572Z" fill="white"/>
</g>
</g>
<defs>
<clipPath id="clip0_1646_58191">
<rect width="16" height="16" rx="3" fill="white"/>
</clipPath>
<clipPath id="clip1_1646_58191">
<rect width="10.3071" height="9.75" fill="white" transform="translate(2.84644 2.875)"/>
</clipPath>
</defs>
</svg>
